<svg width="26" height="29" viewBox="0 0 26 29" fill="none" xmlns="http://www.w3.org/2000/svg">
<path fill-rule="evenodd" clip-rule="evenodd" d="M12.9965 12.9391C14.0074 12.9391 14.9768 12.4939 15.6916 11.7013C16.4064 10.9088 16.8079 9.83387 16.8079 8.71304C16.8079 7.59221 16.4064 6.51729 15.6916 5.72475C14.9768 4.9322 14.0074 4.48695 12.9965 4.48695C11.9857 4.48695 11.0162 4.9322 10.3015 5.72475C9.58669 6.51729 9.18514 7.59221 9.18514 8.71304C9.18514 9.83387 9.58669 10.9088 10.3015 11.7013C11.0162 12.4939 11.9857 12.9391 12.9965 12.9391ZM4.10327 25.6174C4.10327 24.3224 4.3333 23.0402 4.78023 21.8438C5.22716 20.6474 5.88223 19.5604 6.70805 18.6447C7.53386 17.729 8.51425 17.0027 9.59323 16.5071C10.6722 16.0116 11.8287 15.7565 12.9965 15.7565C14.1644 15.7565 15.3209 16.0116 16.3998 16.5071C17.4788 17.0027 18.4592 17.729 19.285 18.6447C20.1108 19.5604 20.7659 20.6474 21.2128 21.8438C21.6598 23.0402 21.8898 24.3224 21.8898 25.6174H4.10327Z" fill="#9FB3B2"/>
</svg>
